<?xml version="1.0" encoding="UTF-8" standalone="no"?>
<!DOCTYPE svg PUBLIC "-//W3C//DTD SVG 1.1//EN" "http://www.w3.org/Graphics/SVG/1.1/DTD/svg11.dtd">
<svg width="100%" height="100%" viewBox="0 0 1280 62" version="1.1" xmlns="http://www.w3.org/2000/svg" xmlns:xlink="http://www.w3.org/1999/xlink" xml:space="preserve" xmlns:serif="http://www.serif.com/" style="fill-rule:evenodd;clip-rule:evenodd;stroke-linejoin:round;stroke-miterlimit:2;">
    <g id="archet">
        <g transform="matrix(1,0,0,1,0,-286)">
            <path d="M1148,330C1154.17,327.76 1156.91,324.475 1157.18,321.533C1157.37,319.47 1156.35,317.503 1154.31,315.775C1152.46,314.193 1149.59,312.865 1145.79,312.175C1145.08,312.048 1144.34,311.978 1143.57,311.918C1139.16,311.575 1133.72,312.015 1127.41,313.43C1120.33,315.084 1097.43,315.864 1067.06,316.374C1051.55,316.635 1034.11,316.832 1015.83,316.98C976.189,317.301 932.613,317.522 896.229,317.566C862.958,317.607 835.71,317.562 823,318C835.714,317.734 862.959,317.981 896.221,318.556C932.606,319.184 976.176,320.279 1015.82,320.777C1034.12,321.007 1051.58,321.137 1067.11,321.086C1098.04,320.985 1121.36,320.188 1128.59,318.57C1135.49,316.934 1141.23,316.773 1145.61,317.222C1148.39,317.508 1150.6,317.927 1152.16,318.825C1154.36,320.095 1155.13,321.994 1153.95,324.231C1152.97,326.081 1151.06,328.037 1148,330Z" style="fill:rgb(168,152,171);"/>
        </g>
        <g transform="matrix(1,0,0,1,0,-286)">
            <path d="M8,328C12.443,321.213 13.65,312.905 17.304,305.905C18.822,302.996 20.77,300.317 23.573,298.08C27.02,295.331 31.071,293.822 35.334,293.06C41.811,291.903 48.773,292.482 54.897,293.142C84.359,296.034 113.745,299.659 143.173,302.887C155.799,304.272 168.432,305.574 181.08,306.734C218.078,310.1 256.629,312.902 295.213,315.218C333.789,317.533 372.393,319.361 409.491,320.99C423.57,321.575 437.651,322.35 451.736,322.801C461.17,323.102 470.605,323.255 480.042,323.129C514.829,322.616 557.697,321.54 603.639,320.091C701.966,316.992 814.384,312.37 891.83,309.702L1146.09,300.848L1230.32,298.921C1236.49,298.699 1244.13,296.937 1251.42,296.88C1256.28,296.843 1260.99,297.571 1265,300C1261.01,297.538 1256.29,296.79 1251.42,296.778C1244.13,296.76 1236.48,298.398 1230.31,298.538L1146.05,299.348C1103.65,300.215 1061.26,301.159 1018.87,302.211C976.477,303.263 934.089,304.424 891.7,305.558C814.243,307.743 701.8,311.484 603.465,314.151C557.553,315.397 514.718,316.447 479.958,316.871C470.615,316.998 461.273,316.837 451.932,316.551C437.865,316.119 423.8,315.395 409.739,314.845C365.336,313.225 318.776,311.247 272.676,308.694C241.79,306.983 211.11,305.032 181.429,302.658C173.003,301.989 164.585,301.249 156.169,300.477C122.47,297.386 88.828,293.666 55.103,290.858C48.795,290.395 41.63,290.06 35.022,291.473C30.564,292.427 26.359,294.165 22.83,297.181C19.991,299.608 18.051,302.458 16.573,305.54C13.15,312.68 12.222,321.046 8,328Z" style="fill:rgb(168,152,171);"/>
        </g>
        <path d="M1165,49C1169.15,49.291 1172.96,49.65 1176.57,49.958C1180.74,50.315 1184.55,50.679 1188.09,50.978C1191.41,51.257 1194.46,51.473 1197.31,51.683C1202.61,52.075 1207.15,52.384 1211.2,52.574C1219.28,52.953 1225.43,52.731 1231.57,51.023C1234.65,50.126 1236.67,48.521 1238,46.496C1238.24,46.138 1238.63,45.813 1238.64,45.384C1238.66,44.509 1238.07,44.779 1237.99,43.898C1237.97,43.674 1238.14,43.473 1238.2,43.257C1240.61,35.377 1235.76,23.518 1244,22C1235.9,22.955 1239.54,34.483 1236.96,42.167C1236.85,42.523 1236.74,42.884 1236.55,43.202C1236.52,43.263 1236.49,43.326 1236.43,43.364C1235.77,43.792 1235.69,43.088 1235.06,43.534C1234.91,43.642 1234.88,43.858 1234.77,44.015C1233.9,45.386 1232.53,46.417 1230.43,46.977C1226.46,48.08 1222.48,48.442 1217.89,48.505C1211.04,48.599 1202.88,47.758 1191.55,47.631C1187.53,47.586 1183.13,47.704 1178.25,47.956C1174.16,48.168 1169.79,48.553 1165,49Z" style="fill:rgb(168,152,171);"/>
        <g transform="matrix(1,0,0,1,0,-286)">
            <path d="M43,319C39.661,313.828 39.132,310.627 40.892,308.534C41.828,307.42 43.477,306.969 45.483,306.445C47.17,306.005 49.11,305.578 51.274,305.347C54.934,304.901 75.529,306.708 104.543,309.073C139.236,311.9 185.844,315.593 230.022,317.907C257.842,319.364 284.694,320.228 307,320C284.707,319.718 257.901,318.185 230.132,316.149C177.889,312.317 122.276,306.517 87.026,303.205C67.144,301.338 53.652,300.323 50.726,300.653C48.233,300.968 45.947,301.34 44.069,302.066C41.182,303.183 39.154,304.8 38.158,306.731C37.438,308.129 37.091,309.674 37.571,311.455C38.155,313.623 39.799,316.114 43,319Z" style="fill:rgb(168,152,171);"/>
        </g>
    </g>
</svg>
